# xmcd
#
# Track frame offsets: 
#        150
#        15482
#        30647
#        43357
#        66367
#        88700
#        104805
#        120520
#        144155
#        161950
#
# Disc length: 2394 seconds
#
# Revision: 0
# Processed by: cddbd v1.5PL3 Copyright (c) Steve Scherf et al.
# Submitted via: ExactAudioCopy v0.95a4
#
DISCID=8a09580a
DTITLE=Jim Salestrom - A Colorado Collection
DYEAR=1995
DGENRE=country
TTITLE0=My Colorado Home
TTITLE1=Blue River Dreamin'
TTITLE2=Genuine Colorado
TTITLE3=Queen Anne's Lace
TTITLE4=Rocky Mtn High*
TTITLE5=Rainbow Connection*
TTITLE6=The River Song
TTITLE7=Sunshine on My Shoulders*
TTITLE8=Where Mountains Touch the Sky
TTITLE9=Grateful
EXTD=
EXTT0=
EXTT1=
EXTT2=
EXTT3=
EXTT4=
EXTT5=
EXTT6=
EXTT7=
EXTT8=
EXTT9=
PLAYORDER=
